<svg xmlns="http://www.w3.org/2000/svg" viewBox="0 0 312 72.21"><defs><style>.cls-1{fill:#231f20;}</style></defs><g id="Layer_2" data-name="Layer 2"><g id="_Layer_" data-name="&lt;Layer&gt;"><path class="cls-1" d="M19.65,48.12l-.21-.33c-.74-1.29-1.38-2.52-2.09-3.67A12.82,12.82,0,0,0,15.67,42c-1.26-1.31-6.66-6.05-9-4.61-.86.53-1,1.77-2.07,2.4C3.84,40.22,3,40.47,2.2,41c-.94.58-2.5,2.16-2.15,2.73.25.41.39.44.59.32.53-.33.77-.76,1.38-1.14,1.84-1.13,3.47.68,4.35,2.11,4.18,6.78,1.89,11.3,6.27,20,3,4.95,7.22,5.31,10.57,3.24,5.06-3.12,5.93-7.66,3.29-12C24.56,53.16,21.89,51.76,19.65,48.12Z"/><path class="cls-1" d="M37.31,22.82a24.23,24.23,0,0,0-5.84,1.84c-2.78,1.19-5.53,2.69-7.91,3.71-.49.21-2,1-1.81,1.41a1.74,1.74,0,0,0,.24.31,7.47,7.47,0,0,1,3.85,4.09c3.3,7.68.21,15.54,3.55,23.3,1.42,3.31,4.7,3.88,7.61,2.63l5.42-2.33a3.8,3.8,0,0,0,2.22-2.73,8.64,8.64,0,0,0,4.84-.41c5.65-2.43,6.39-3,6.93-3.45.05,0,.07-.09.12-.1,4.55-3.74,4.39-9.84,2.26-14.78C55.46,28.55,46.31,21.51,37.31,22.82ZM50.17,51.36c-2.69,1.16-5.16.29-7.05-1.93a18.34,18.34,0,0,1-1.32-2.57c-2.12-4.94-2.54-10.4-4.63-15.25a10.58,10.58,0,0,0-6.06-6c5.56-2.39,8.78,1.34,10.68,5.75,1.72,4,2.07,8.46,3.8,12.48a22.21,22.21,0,0,0,5,7.31Z"/><path class="cls-1" d="M91.57,37a9.42,9.42,0,0,1-1-2.4,12.36,12.36,0,0,1-.34-3.79,8.17,8.17,0,0,0-.25-2c-.46-1.72-1.61-3.34-3.83-2.74a3.25,3.25,0,0,0-.63.23c-3.16,1.36-4.82,5.84-4.77,8.76a11.16,11.16,0,0,0,.35,2.74,10.23,10.23,0,0,0,.76,1.89c-3.49,0-5.59-2.45-6.45-5.6-.73-2.64-.62-6.25-1.3-11.09a18.91,18.91,0,0,0-.57-2.83,13.49,13.49,0,0,0-4.8-7.55c-.44-.32-1.45-1.09-2.19-.89l-6.8,1.86c-.7.19-1.85.51-1.65,1.25.38,1.39,2.22.29,3.56,5.19a16.6,16.6,0,0,1,.78,5.76l-.25,3.45c-.39,5.14-1.2,9.44-.2,13.1A11.39,11.39,0,0,0,62.53,44c1.12,2.43,3.13,4.32,6.46,3.4l5.74-1.57c1.06-.29,2.3-2.32,2.67-2.42.19,0,1.76,1,3.3.79l7.46-2c2.12-.58,4.67-1.83,4-4.19C92.08,37.59,91.76,37.33,91.57,37Z"/><path class="cls-1" d="M124.41,29.64s-.07-.13-.07-.18l0-.24c-.24-1.61.15-3.22-.08-4.84-.36-2.37-1.81-3-2.9-2.82A6.82,6.82,0,0,0,118,23c-2.83,2.5-5.06,6.13-4.42,10.41-4.07.07-6-3.77-6.56-7.28a23.1,23.1,0,0,1-.34-4.9c2-.15,4.57,1.41,4.84,3.21.09.62-.38,1.37-.29,1.94,0,.38.59.4.87.35,1.57-.23,2.08-2.39,1.89-3.67s-.93-3.6-1.14-5c-.12-.85.25-1.59,0-3-.28-1.9-1.59-5.2-3.45-5.6,0,0-.1,0-.15,0a1,1,0,0,0-.66,1.07,2.09,2.09,0,0,0,.08.23c1.3,1.26,2.17,2.2,2.42,3.91s-.2,2.89-2,3.16c-.23,0-2.33.3-2.36.06-.24-1.57-.24-3.22-.47-4.78A14.05,14.05,0,0,0,102.47,5c.37-.1,1.5-.32,1.88-.37,3.8-.57,7.72,1.62,9.9,5.91a11.61,11.61,0,0,0,4.9,5.53,6.56,6.56,0,0,0,2.7.86c.28,0,.41-.2.36-.54-.15-1-.69-2-.84-3-.27-1.8.13-3.7-.15-5.56a7.72,7.72,0,0,0-.25-1c-1.07-3-2.66-5.18-6-4.68-3.79.61-7.4,1.14-10.91,1.66L93.58,5.29c-1.09.16-2.26.43-2.2.86s1.15.27,2,1.35a8.48,8.48,0,0,1,1.86,4.43c1.32,8.88-3.5,13.33-2,23.5a5.58,5.58,0,0,0,3.84,4.28,10.2,10.2,0,0,0,3.34-.06c1.85-.27,3.74-.6,5.21-.82A6.12,6.12,0,0,0,109.4,36c1,.57,2.79,1.87,5,1.55l8.12-1.21c2-.29,3.28-1.41,3-3.35A11.67,11.67,0,0,0,124.41,29.64Z"/><path class="cls-1" d="M174.27,20.39c.12-2,1.56-7.62,1.61-12.42,0-3.84-2.76-7.71-4.15-7.72L160.5.14c-.86,0-1,.18-1,.37s.28.49,1.19.5a3.49,3.49,0,0,1,.72.05c2.49.55,3.29,2.39,3.26,5.07a37.78,37.78,0,0,1-1.63,10c-.05.1-.1.15-.19.15a.22.22,0,0,0-.15-.05,38.46,38.46,0,0,0-6.18-.83,5,5,0,0,0-1.64.17c-.14,0-.14-.14-.14-.24C155.14,13,156,11,156,9c0-3.22-.28-5.29-3.27-8.63-.29-.29-.48-.34-1.49-.35l-2.83,0c-3.79,0-5.33,0-7,0-.38,0-.48,0-.48.14s0,.48.33.48c3.31.18,3.66,3.26,3.64,6,0,3.51-1.76,8.1-3.09,11.3-1.57,3.63-2.89,5.93-2.93,10,0,3.69,1.27,7,5.59,7.06l6.29.06c.1,0,.68-.09.82-.09,2.79-.74,4.05-2.07,4.08-4.9a10.68,10.68,0,0,0-.12-2.11c-.46-2-1.26-4.24-1.24-6.35,0-.87.16-1.78,1.17-1.91.68,0,1.69-.18,2.74-.17a4.82,4.82,0,0,1,3,.71c-.59,1.77-2.07,5.69-2.1,8.62-.06,5.85,5,6.33,9.73,6.38,3,0,5.33-.14,6.61-3a3.21,3.21,0,0,0,.5-1.77c0-2.49-1.77-6.16-1.73-9.66Z"/><path class="cls-1" d="M198.35,3l-.28,0c-9-1.05-18,10.77-18.88,17.33l-.08.58c-.48,8.26,2.12,15,14.15,16.56a33.6,33.6,0,0,0,3.79.31c8.86.37,15-6.08,16.06-14A19.73,19.73,0,0,0,212.3,15C210.17,8.44,205.39,4,198.35,3Zm3.87,8.75c0,.29-.12.52-.15.71,0,.38-3.17,11.44-3.43,13.39C198,31,198.07,32,198,32.67c-.2,1.52-1.34,3.16-3.1,2.92-3.71-.49-3.86-5.16-3.48-8A22.52,22.52,0,0,1,192.1,24c2.77-9.12,3.21-9.89,3.41-11.36a25.55,25.55,0,0,0-.07-6.36,3.74,3.74,0,0,1,.05-.72,2.46,2.46,0,0,1,2.61-1.78C202.38,4.39,202.54,9.4,202.22,11.78Z"/><path class="cls-1" d="M245.24,16.36l0-.18a2.75,2.75,0,0,1,2.91-1.82c2,.51,2,.52,2.05.49a.21.21,0,0,0,.09-.13c.08-.33-.48-.82-1-1-.74-.19-1.31-.29-2-.46-2.14-.56-4.64-1.26-6-1.61-.61-.16-1-.21-1-.07s-.11.42,0,.53c.65.37,1.26.33,2,1.17,1.24,1.51,1.44,3.6,1.47,5.59a40.13,40.13,0,0,1-1.22,9.8C241.29,33.39,237,41.49,231.42,40c-2.28-.59-2.55-2.4-1.89-4.91,1-3.9,4.26-9.5,5.62-14.7a13,13,0,0,0,.24-7c-.12-.47-1-3.48-1.46-3.7C230.71,9,223.32,7,221.65,6.58c-.23-.06-.34.16-.4.39s0,.35.33.44c1.72.45,1.94.55,2.15.71,1.92,1.39,1.64,3.8,1.28,5.74-1.61,6.18-7.14,10.64-8.56,16.07-2.3,8.78.93,12,10.92,14.61,5.8,1.52,11.62-1.38,14.92-6.62a17.94,17.94,0,0,0,2.19-5.13C245.9,27.35,244.7,18.45,245.24,16.36Z"/><path class="cls-1" d="M276.13,51.34c1.21-3.55-1.26-7.38-3.79-10,3.63,0,7.81.59,9.3-3l.12-.31c2.61-7.29-3.19-12.5-7.13-14.39-1.11-.57-2.22-1-3.73-1.65-6-2.48-11.12-4.5-16.18-6.6-.4-.16-.73-.25-.85.06-.34.69,2.21,1.44,2.56,1.84,1.77,2,.75,5.09-.1,7.13-2.51,6.08-10.38,10.14-12.86,16.13a9,9,0,0,0-.87,3.85c0,1.66.71,3.67,2.25,4.47a23.47,23.47,0,0,0,2.21,1.07c.8.33,1.66.63,2.46,1,5.27,2.19,5.92,2.25,7.17-.77,1.09-2.61.95-5.42,2-8a16.54,16.54,0,0,1,2.91-5,1.48,1.48,0,0,1,.61.15,4.92,4.92,0,0,1,2.44,6.41c-.73,1.78-2.1,3.44-2.8,5.13-1,2.44-1.25,5.77,1.11,7.11.09,0,.2.13.29.17a45,45,0,0,0,5.14,2.65c3.32,1.38,6.48,2.53,7.7-.29a4,4,0,0,0,.1-3.24A5.36,5.36,0,0,1,276.13,51.34Zm-6.28-18.45a11.36,11.36,0,0,1-1.3,2.37,2.8,2.8,0,0,1-3.49,1.16A7.9,7.9,0,0,1,262.88,35c1-2.37,1.89-3.94,2.52-5.45a17,17,0,0,0,1.22-6.71c.15-.36.61-.22.92-.09l.18.07C271.22,24.32,271.26,29.48,269.85,32.89Z"/><path class="cls-1" d="M310.93,49a7.53,7.53,0,0,1-1.12-1.56c-1.63-3.18-2.13-6.16-5.3-8.16l-4.35-2.74a9.84,9.84,0,0,0-13.22,2.8c-4.2,6.66,1.14,12.23,5.84,21.72,1.13,2.24,1.5,4.91.14,7.06a3.86,3.86,0,0,1-5.45,1c-3.49-2.2-2.49-6.5-1.69-9.92.4-2.53.39-5.77-2-7.3a3.81,3.81,0,0,0-5.17,1.45,7.17,7.17,0,0,0-1,5.06c.58,5.3,5.47,8.61,9.57,11.2,4.92,3.09,9.21,3.13,12.19,1.55a9.4,9.4,0,0,0,3.43-3.29c1.79-2.84,2.51-7.22-.62-12.7L295.77,43.9c-.87-1.51-1.68-3.73-.63-5.39a3.51,3.51,0,0,1,5.15-1.07c3.13,2,2.18,4.55,2.06,8-.07,2.45.59,5.19,2.78,6.58s5.19,1.11,6.58-1.08C312.4,49.83,311.73,49.81,310.93,49Z"/></g></g></svg>