<svg xmlns="http://www.w3.org/2000/svg" viewBox="0 0 305.38 35.38"><defs><style>.cls-1{fill:#290e0e;}</style></defs><g id="Layer_2" data-name="Layer 2"><g id="Layer_1-2" data-name="Layer 1"><path class="cls-1" d="M0,26.74C.86,17,5.18,14.35,5.18,6.38c0-1.68-.43-4.08-2.59-4.08-.72,0-1.15.24-1.77.24C.58,2.54.48,2.45.48,2,.48,1.3,2.64.77,3.75.77,4.66.77,5.52,1,6.43,1c1.2,0,2-1,3-1,2.73,0,4.85,6.86,5.23,8.64A13,13,0,0,1,15,11.42c0,1.35-.1,2.74-.15,4.23V16c0,4.28,1.54,6.87,1.54,10.56,0,5-3.12,8.45-9.07,8.45C3.36,35,0,32.55,0,26.74Z"/><path class="cls-1" d="M18.62,29.62c0-8.45,6-14.45,6-22.8a7.47,7.47,0,0,0-1.92-5.28,1.49,1.49,0,0,1-.1-.39c0-.43,1.68-.57,2.21-.57,2.59,0,5.71-.29,8.73-.29a24.49,24.49,0,0,1,6.1.62C48.39,3.26,54,13.34,54,21.79c0,5.38-2.25,11-7.92,12.68,0,0-.09,0-.14,0-.67.2-1.59.44-7.73.44a8.56,8.56,0,0,1-4.61-1.54A3.79,3.79,0,0,1,30.48,35h-5.9C21.41,35,18.62,33.22,18.62,29.62Zm15.61-4.85a18.58,18.58,0,0,0,.19,2.88c.86,2.78,2.78,4.56,5.71,4.56h.43a22.45,22.45,0,0,1-1.68-8.69c0-4.37,1.44-8.59,1.44-13,0-4.8-1.49-9.5-7.53-9.5A10.62,10.62,0,0,1,36,8.93C36,14.21,34.23,19.39,34.23,24.77Z"/><path class="cls-1" d="M54.91,30.05a11.21,11.21,0,0,1-.14-1.73c0-3.79,1.92-7.73,3.65-12.57l1.15-3.27a16.68,16.68,0,0,0,.77-5.76c0-5.09-2.07-4.51-2.07-5.95,0-.77,1.2-.77,1.92-.77h7.06c.77,0,1.54,1,1.87,1.44A13.49,13.49,0,0,1,71.76,10a19.9,19.9,0,0,1-.19,2.88c-.62,4.85-1.68,8.31-1.68,11.05,0,3.26,1.39,6.14,4.75,7.1a10.29,10.29,0,0,1-.24-2,11.37,11.37,0,0,1,.39-2.73c.72-2.83,3.5-6.72,6.91-7.2a3.26,3.26,0,0,1,.67,0c2.3,0,3,1.87,3,3.65a8,8,0,0,1-.29,2,12.33,12.33,0,0,0-.67,3.74A9.66,9.66,0,0,0,84.77,31a4.71,4.71,0,0,1,.34,1.11c0,2.44-2.79,3-5,3H72.38c-1.53-.24-2.78-1.63-3-1.63C69,33.41,67.3,35,66.19,35H60.24C56.78,35,55.34,32.69,54.91,30.05Z"/><path class="cls-1" d="M92.59,6.86a8.45,8.45,0,0,0-1.2-4.65C90.72,1,89.62,1.06,89.62.58s1.2-.53,2.3-.53h10.56c3.55,0,7.2,0,11,0,3.41,0,4.66,2.4,5.28,5.52a7.6,7.6,0,0,1,.1,1.06c0,1.87-.67,3.69-.67,5.52,0,1.05.38,2.11.38,3.12,0,.33-.14.48-.43.48a6.69,6.69,0,0,1-2.55-1.25,11.63,11.63,0,0,1-4-6.19C110.07,3.7,106.51,1,102.67,1c-.38,0-1.53.05-1.92.1a14,14,0,0,1,2.64,8.54c0,1.58-.24,3.22-.24,4.8,0,.24,2.11.29,2.35.29,1.83,0,2.45-1.25,2.45-2.83s-.72-2.79-1.82-4.23c0,0,0-.19,0-.24a.94.94,0,0,1,.82-1s.09.05.14.05c1.78.67,2.59,4.13,2.59,6,0,1.44-.48,2.11-.48,3,0,1.45.39,3.75.39,5.14s-.82,3.36-2.4,3.36c-.29,0-.82-.09-.82-.48,0-.57.58-1.25.58-1.87,0-1.82-2.31-3.74-4.32-3.89a23.55,23.55,0,0,0-.39,4.9c0,3.55,1.39,7.63,5.43,8.16,0-4.32,2.73-7.59,5.9-9.65a6.79,6.79,0,0,1,3.46-1c1.1,0,2.45.82,2.45,3.22,0,1.63-.63,3.16-.63,4.8v.24s0,.14,0,.19a11.37,11.37,0,0,1,.58,3.5c0,2-1.44,2.88-3.46,2.88h-8.21c-2.21,0-3.74-1.53-4.7-2.25A6.12,6.12,0,0,1,98.93,35c-1.49,0-3.41,0-5.28,0a10.14,10.14,0,0,1-3.31-.43,5.57,5.57,0,0,1-3.17-4.8C87.17,19.54,92.59,15.84,92.59,6.86Z"/><path class="cls-1" d="M133.78,28.08c0-4.08,1.29-6.38,2.83-10,1.29-3.22,3-7.83,3-11.33,0-2.74-.38-5.81-3.69-5.95-.29,0-.34-.39-.34-.48s.1-.15.48-.15c1.63,0,3.17,0,7,0h2.83c1,0,1.2,0,1.49.33,3,3.31,3.36,5.38,3.36,8.59,0,1.92-.86,4-1.2,6.29,0,.1,0,.19.15.24a5.15,5.15,0,0,1,1.63-.19,39,39,0,0,1,6.19.77.18.18,0,0,1,.14.05c.1,0,.15-.05.2-.15a38.08,38.08,0,0,0,1.53-10c0-2.69-.81-4.51-3.31-5a3.49,3.49,0,0,0-.72-.05c-.91,0-1.2-.19-1.2-.48s.1-.38,1-.38h11.23c1.4,0,4.23,3.84,4.23,7.68,0,4.8-1.39,10.41-1.49,12.43v.38c0,3.51,1.82,7.16,1.82,9.65a3.17,3.17,0,0,1-.48,1.78c-1.24,2.88-3.55,3.07-6.57,3.07-4.75,0-9.79-.43-9.79-6.29,0-2.93,1.43-6.86,2-8.64a4.82,4.82,0,0,0-3-.67c-1.05,0-2.06.14-2.73.19-1,.15-1.15,1.06-1.15,1.92,0,2.11.81,4.37,1.29,6.34a10,10,0,0,1,.15,2.11c0,2.83-1.25,4.18-4,4.94-.14,0-.72.1-.81.1h-6.29C135.12,35.09,133.78,31.78,133.78,28.08Z"/><path class="cls-1" d="M189.31,35c-12.14,0-15.6-6.29-16.22-14.55v-.57c0-6.63,7.39-19.54,16.41-19.69h.29c7.11,0,12.44,3.8,15.41,10a19.49,19.49,0,0,1,2,8.64c0,8-5.23,15.17-14.07,16A33.71,33.71,0,0,1,189.31,35Zm1.35-2.07c1.77,0,2.68-1.77,2.68-3.31,0-.72-.24-1.63-.24-6.82,0-2,1.64-13.34,1.64-13.73,0-.19,0-.43,0-.72,0-2.4-.82-7.34-5.14-7.34a2.45,2.45,0,0,0-2.35,2.11,4,4,0,0,0,0,.72,25.5,25.5,0,0,1,.92,6.29c0,1.49-.34,2.3-1.88,11.71a23,23,0,0,0-.24,3.6C186.14,28.27,186.91,32.88,190.66,32.88Z"/><path class="cls-1" d="M211,24c0-5.62,4.22-11.33,4.22-17.71-.14-2-.48-4.37-2.69-5.23a6.32,6.32,0,0,0-2.25-.15c-.34,0-.44-.19-.44-.33s.05-.48.29-.48c1.73,0,9.36,0,12.68,0,.52.09,2.11,2.78,2.35,3.21a13.07,13.07,0,0,1,1.53,6.82c0,5.38-1.72,11.62-1.72,15.65,0,2.59.72,4.27,3.07,4.27,5.71,0,7.87-8.93,7.87-13.78a39.87,39.87,0,0,0-1.3-9.79c-.52-1.92-1.24-3.89-2.83-5-.91-.62-1.49-.43-2.21-.62a1.2,1.2,0,0,1-.09-.53c0-.14.38-.19,1-.19,1.39,0,4,.05,6.19.05.67,0,1.25,0,2,0,.57,0,1.24.33,1.24.67a.18.18,0,0,1,0,.14c0,.05-.1.05-2.12.05a2.74,2.74,0,0,0-2.35,2.5V3.6c0,2.16,3.41,10.46,3.41,16.08A17.75,17.75,0,0,1,238,25.2c-1.87,5.91-6.77,10.18-12.77,10.18C214.94,35.38,211,33.07,211,24Z"/><path class="cls-1" d="M240,27.7c0-6.48,5.71-13.25,5.71-19.83,0-2.21-.24-5.47-2.64-6.62-.48-.24-3.12.05-3.07-.72,0-.34.34-.39.77-.39,5.47,0,11-.09,17.47-.09,1.64,0,2.84,0,4.08.09C266.64.38,274,3,274.37,10.7V11c0,3.89-4.08,5-7.44,6.34,3.36,1.49,7.1,4.08,7.34,7.82a5.51,5.51,0,0,0,1.54,3.51,3.93,3.93,0,0,1,1.15,3c0,3.07-3.41,3.22-7,3.22a44.53,44.53,0,0,1-5.76-.48c-.09,0-.24,0-.33,0-2.69-.34-3.75-3.51-3.75-6.15,0-1.82.63-3.88.63-5.8a4.93,4.93,0,0,0-4.71-5,1.46,1.46,0,0,0-.62.1,16.75,16.75,0,0,0-.77,5.76c0,2.78,1.2,5.33,1.2,8.16,0,3.26-.62,3.46-6.34,3.46-.86,0-1.77,0-2.64,0a20.54,20.54,0,0,1-2.44-.14c-1.73-.14-3.17-1.73-3.8-3.26A9.11,9.11,0,0,1,240,27.7Zm18.39-12a2.8,2.8,0,0,0,2.78-2.4,11.37,11.37,0,0,0,.29-2.69c0-3.7-2-8.45-5.81-8.45h-.19c-.34,0-.82.05-.82.43A17,17,0,0,1,256,9.22c0,1.63-.19,3.4-.24,6A8.32,8.32,0,0,0,258.34,15.65Z"/><path class="cls-1" d="M280.75,21.84c2.88,0,4.61,2.74,5.62,5.09,1.15,3.31,2.59,7.49,6.72,7.49a3.86,3.86,0,0,0,4.08-3.75c0-2.54-1.73-4.6-3.89-5.9-9-5.52-16.51-7.39-16.51-15.27A9.83,9.83,0,0,1,286.46.1h5.14c3.74,0,5.76,2.25,8.83,4.08a8.85,8.85,0,0,0,1.78.72c1.1.24,1.68-.1,1.68,1.2,0,2.59-2.5,4.41-5,4.41s-4.61-2-5.86-4.08c-1.73-3-2.3-5.66-6-5.66a3.51,3.51,0,0,0-3.79,3.65c0,2,1.87,3.4,3.41,4.22l11.42,6.15c5.57,3,7.3,7.05,7.3,10.41a9.33,9.33,0,0,1-1.15,4.61C302.54,32.74,298.9,35,293.09,35c-4.85,0-10.76-.19-14.07-4.36a7.18,7.18,0,0,1-1.87-4.8A3.81,3.81,0,0,1,280.75,21.84Z"/></g></g></svg>